<?xml version="1.0" standalone="no"?><!DOCTYPE svg PUBLIC "-//W3C//DTD SVG 1.1//EN" "http://www.w3.org/Graphics/SVG/1.1/DTD/svg11.dtd"><svg t="1618924133060" class="icon" viewBox="0 0 1024 1024" version="1.1" xmlns="http://www.w3.org/2000/svg" p-id="972" xmlns:xlink="http://www.w3.org/1999/xlink" width="200" height="200"><defs><style type="text/css"></style></defs><path d="M375.9 888H217.8V136h560v405c0 8.8 7.2 16 16 16h40c8.8 0 16-7.2 16-16V96c0-17.6-14.4-32-32-32h-640c-17.6 0-32 14.4-32 32v832c0 17.6 14.4 32 32 32H376c8.8 0 16-7.2 16-16v-40c-0.1-8.8-7.2-16-16.1-16z" p-id="973"></path><path d="M849.8 776.1c0-101.8-82.1-183.9-183.9-183.9S482 674.3 482 776.1 564.1 960 665.9 960s183.9-82.1 183.9-183.9z m-188.4 143c-18 0-32.4-14.6-32.4-32.4 0-17.8 14.6-32.4 32.4-32.4 18 0 32.4 14.6 32.4 32.4 0.1 17.8-14.4 32.4-32.4 32.4z m53.7-241.5l-19.7 121.6c-6.5 39.4-59.1 39.4-62.3 0L620 677.6c-6.7-46 98.5-46 95.1 0zM433.5 630v-28c0-8.8-7.2-16-16-16h-117c-8.8 0-16 7.2-16 16v28c0 8.8 7.2 16 16 16h117c8.8 0 16-7.2 16-16zM433.5 780.1v-28c0-8.8-7.2-16-16-16h-117c-8.8 0-16 7.2-16 16v28c0 8.8 7.2 16 16 16h117c8.8 0 16-7.2 16-16zM327.2 435.2l0.4 1.2c7.9 21.9 19.5 42 34.5 59.7l0.7 0.8c5.6 6.6 14.6 9 22.8 6.2l30.1-10.7c11.1 8.6 23.2 15.6 36 20.9l5.8 31.4c1.5 8.4 8.3 15.2 16.7 16.7l1.2 0.2c11.3 2 22.9 3.1 34.4 3.1 11.6 0 23.1-1 34.4-3.1l1.1-0.2c8.5-1.6 15.2-8.3 16.7-16.7l5.8-31.3c13-5.3 25.2-12.3 36.3-21L634 503c8.1 2.9 17.3 0.4 22.8-6.1l0.8-0.9c15-17.8 26.6-37.8 34.5-59.8l0.4-1c2.9-8 0.5-17.1-6-22.7l-24.1-20.6c0.9-7 1.4-14 1.4-21s-0.5-14.1-1.4-21l24.1-20.6c6.5-5.6 9-14.7 6.1-22.8l-0.4-1.2c-7.8-21.9-19.4-42-34.5-59.7l-0.7-0.9c-5.6-6.6-14.6-9-22.8-6.2l-29.9 10.6c-11.1-8.6-23.3-15.7-36.3-21l-5.8-31.3c-1.5-8.4-8.3-15.2-16.7-16.7l-1.2-0.2c-22.5-4.1-46.3-4.1-68.8 0l-1.1 0.2c-8.5 1.6-15.2 8.3-16.7 16.7l-5.8 31.4c-12.9 5.3-25 12.3-36 20.9l-30.2-10.7c-8.1-2.9-17.3-0.4-22.8 6.1l-0.8 0.9c-15 17.8-26.6 37.8-34.5 59.7l-0.3 1c-2.9 8.1-0.5 17.2 6.1 22.9l24.4 20.8c-0.9 6.8-1.4 13.7-1.4 20.8 0 7 0.5 14 1.4 20.8l-24.4 20.8c-6.6 5.7-9.1 14.9-6.2 23z m60-148.4l37.5 13.3 16.3-13.5c9.2-7.6 19.5-13.6 30.6-17.8l19.7-7.4 7.2-39c7.5-0.6 15.1-0.6 22.7 0l7.2 39 19.8 7.4c11.2 4.2 21.6 10.2 30.9 17.8l16.3 13.4 37.3-13.2c4.2 6.2 8.1 12.8 11.4 19.7l-30 25.6 3.4 20.8c1 5.9 1.5 12 1.5 18s-0.5 12-1.5 18l-3.4 20.8 30 25.7c-3.3 6.8-7.1 13.4-11.4 19.6l-37.3-13.2-16.3 13.4c-9.3 7.6-19.7 13.6-30.9 17.8l-19.8 7.4-7.2 39c-7.5 0.6-15.1 0.6-22.7 0l-7.2-39-19.7-7.5c-11.1-4.2-21.4-10.2-30.6-17.8l-16.3-13.5-37.5 13.3c-4.2-6.2-8.1-12.8-11.4-19.7l30.3-25.9-3.4-20.8c-1-5.9-1.4-11.9-1.4-17.7 0-6.1 0.5-12 1.4-17.7l3.4-20.8-30.3-25.9c3.2-6.7 7-13.3 11.4-19.6z" p-id="974"></path><path d="M509.9 444.2c42.7 0 77.5-34.8 77.5-77.5s-34.8-77.5-77.5-77.5-77.5 34.8-77.5 77.5 34.8 77.5 77.5 77.5zM480 336.8c8-8 18.6-12.4 29.9-12.4 11.3 0 21.9 4.4 29.9 12.4s12.4 18.7 12.4 29.9c0 11.3-4.4 21.9-12.4 29.9S521.1 409 509.9 409c-11.3 0-21.9-4.4-29.9-12.4s-12.4-18.7-12.4-29.9c0-11.3 4.4-21.9 12.4-29.9z" p-id="975"></path></svg>